<mxfile host="app.diagrams.net" modified="2024-03-23T07:21:40.724Z" agent="Mozilla/5.0 (Macintosh; Intel Mac OS X 10.15; rv:109.0) Gecko/20100101 Firefox/115.0" etag="RAPriShWvvzKzuiJpgcR" version="24.0.8" type="github">
  <diagram name="Page-1" id="Ac1VdFeOWFnkBSCcHMfR">
    <mxGraphModel dx="2873" dy="3133" grid="1" gridSize="10" guides="1" tooltips="1" connect="1" arrows="1" fold="1" page="1" pageScale="1" pageWidth="850" pageHeight="1100" math="0" shadow="0">
      <root>
        <mxCell id="0" />
        <mxCell id="1" parent="0" />
        <mxCell id="U_aHsILoJi3wV-RvtX2z-1" value="" style="image;html=1;image=img/lib/clip_art/networking/Router_128x128.png" parent="1" vertex="1">
          <mxGeometry x="-147.5" y="840" width="227.5" height="180" as="geometry" />
        </mxCell>
        <mxCell id="U_aHsILoJi3wV-RvtX2z-2" value="" style="shape=mxgraph.signs.tech.ethernet;html=1;pointerEvents=1;fillColor=#000000;strokeColor=none;verticalLabelPosition=bottom;verticalAlign=top;align=center;rotation=90;" parent="1" vertex="1">
          <mxGeometry x="-100" y="1100" width="140" height="74.34" as="geometry" />
        </mxCell>
        <mxCell id="U_aHsILoJi3wV-RvtX2z-5" value="" style="fontColor=#0066CC;verticalAlign=top;verticalLabelPosition=bottom;labelPosition=center;align=center;html=1;outlineConnect=0;fillColor=#CCCCCC;strokeColor=#6881B3;gradientColor=none;gradientDirection=north;strokeWidth=2;shape=mxgraph.networks.pc;" parent="1" vertex="1">
          <mxGeometry x="-127.5" y="1680" width="200" height="180" as="geometry" />
        </mxCell>
        <mxCell id="n0GhnP_xp3Xh2PBAm6MH-2" value="&lt;font style=&quot;font-size: 23px;&quot;&gt;COMPUTER IP ADDRESS&lt;br&gt;&lt;br&gt;&lt;/font&gt;&lt;div style=&quot;font-size: 23px;&quot;&gt;&lt;font style=&quot;font-size: 23px;&quot;&gt;10.129.5.185&lt;/font&gt;&lt;/div&gt;" style="text;html=1;align=center;verticalAlign=middle;resizable=0;points=[];autosize=1;strokeColor=none;fillColor=none;fontSize=16;" parent="1" vertex="1">
          <mxGeometry x="-480" y="1660" width="290" height="100" as="geometry" />
        </mxCell>
        <mxCell id="n0GhnP_xp3Xh2PBAm6MH-3" value="&lt;font style=&quot;font-size: 23px;&quot;&gt;ROUTER IP ADDRESS&lt;br&gt;&lt;br&gt;10.129.6.220&lt;/font&gt;" style="text;html=1;align=center;verticalAlign=middle;resizable=0;points=[];autosize=1;strokeColor=none;fillColor=none;fontSize=16;" parent="1" vertex="1">
          <mxGeometry x="-440" y="875" width="250" height="100" as="geometry" />
        </mxCell>
        <mxCell id="n0GhnP_xp3Xh2PBAm6MH-12" value="ROUTER" style="text;html=1;align=center;verticalAlign=middle;resizable=0;points=[];autosize=1;strokeColor=none;fillColor=none;fontSize=16;" parent="1" vertex="1">
          <mxGeometry x="-270" y="1000" width="90" height="30" as="geometry" />
        </mxCell>
        <mxCell id="R6CpfAwiNoLqgVxxKqgZ-2" value="" style="image;html=1;image=img/lib/clip_art/computers/Laptop_128x128.png;strokeWidth=8;" vertex="1" parent="1">
          <mxGeometry x="585.48" y="730.5999999999999" width="150" height="140" as="geometry" />
        </mxCell>
        <mxCell id="R6CpfAwiNoLqgVxxKqgZ-4" value="" style="sketch=0;html=1;aspect=fixed;strokeColor=none;shadow=0;fillColor=#3B8DF1;verticalAlign=top;labelPosition=center;verticalLabelPosition=bottom;shape=mxgraph.gcp2.phone_android;strokeWidth=8;" vertex="1" parent="1">
          <mxGeometry x="625.48" y="945.5999999999999" width="103.6" height="185" as="geometry" />
        </mxCell>
        <mxCell id="R6CpfAwiNoLqgVxxKqgZ-8" value="" style="points=[[0.03,0.36,0],[0.18,0,0],[0.5,0.34,0],[0.82,0,0],[0.97,0.36,0],[1,0.67,0],[0.975,0.975,0],[0.5,1,0],[0.025,0.975,0],[0,0.67,0]];verticalLabelPosition=bottom;sketch=0;html=1;verticalAlign=top;aspect=fixed;align=center;pointerEvents=1;shape=mxgraph.cisco19.wireless_access_point;fillColor=#005073;strokeColor=none;strokeWidth=8;" vertex="1" parent="1">
          <mxGeometry x="290" y="410" width="160" height="160" as="geometry" />
        </mxCell>
        <mxCell id="R6CpfAwiNoLqgVxxKqgZ-9" value="&lt;div style=&quot;font-size: 23px;&quot;&gt;Wireless Access Point&lt;/div&gt;" style="text;html=1;align=center;verticalAlign=middle;resizable=0;points=[];autosize=1;strokeColor=none;fillColor=none;strokeWidth=8;" vertex="1" parent="1">
          <mxGeometry x="499.08" y="499.99999999999994" width="230" height="40" as="geometry" />
        </mxCell>
        <mxCell id="R6CpfAwiNoLqgVxxKqgZ-11" value="" style="shape=flexArrow;endArrow=classic;startArrow=classic;html=1;rounded=0;startWidth=23.333333333333336;startSize=5.733333333333333;strokeWidth=8;" edge="1" parent="1">
          <mxGeometry width="100" height="100" relative="1" as="geometry">
            <mxPoint x="540.48" y="1010.5999999999999" as="sourcePoint" />
            <mxPoint x="380" y="620" as="targetPoint" />
            <Array as="points">
              <mxPoint x="380.48" y="930.5999999999999" />
            </Array>
          </mxGeometry>
        </mxCell>
        <mxCell id="R6CpfAwiNoLqgVxxKqgZ-12" value="" style="shape=flexArrow;endArrow=classic;html=1;rounded=0;strokeWidth=8;" edge="1" parent="1">
          <mxGeometry width="50" height="50" relative="1" as="geometry">
            <mxPoint x="390" y="819.9999999999999" as="sourcePoint" />
            <mxPoint x="550" y="819.9999999999999" as="targetPoint" />
          </mxGeometry>
        </mxCell>
        <mxCell id="R6CpfAwiNoLqgVxxKqgZ-24" value="&lt;font style=&quot;font-size: 24px;&quot;&gt;Active Directory&lt;font style=&quot;font-size: 24px;&quot;&gt;&lt;br&gt;&lt;/font&gt;&lt;/font&gt;" style="text;html=1;align=center;verticalAlign=middle;whiteSpace=wrap;rounded=0;strokeWidth=8;perimeterSpacing=6;" vertex="1" parent="1">
          <mxGeometry x="140" y="1750" width="210" height="60" as="geometry" />
        </mxCell>
        <mxCell id="R6CpfAwiNoLqgVxxKqgZ-25" value="&lt;font style=&quot;font-size: 22px;&quot;&gt;WINDOWS SERVER 2019&lt;font style=&quot;font-size: 22px;&quot;&gt;&lt;font style=&quot;font-size: 22px;&quot;&gt;&lt;br&gt;&lt;/font&gt;&lt;/font&gt;&lt;/font&gt;" style="text;html=1;align=center;verticalAlign=middle;whiteSpace=wrap;rounded=0;" vertex="1" parent="1">
          <mxGeometry x="95" y="1660" width="300" height="70" as="geometry" />
        </mxCell>
        <mxCell id="R6CpfAwiNoLqgVxxKqgZ-30" value="&lt;font style=&quot;font-size: 19px;&quot;&gt;RADIUS SERVER&lt;/font&gt;" style="text;html=1;align=center;verticalAlign=middle;whiteSpace=wrap;rounded=0;" vertex="1" parent="1">
          <mxGeometry x="120" y="1830" width="270" height="80" as="geometry" />
        </mxCell>
        <mxCell id="R6CpfAwiNoLqgVxxKqgZ-31" value="&lt;font style=&quot;font-size: 23px;&quot;&gt;ALT ADDRESS FROM 29-203 SUBNET&lt;br&gt;&lt;br&gt;&lt;/font&gt;&lt;div style=&quot;font-size: 23px;&quot;&gt;&lt;font style=&quot;font-size: 23px;&quot;&gt;10.129.6.221&lt;/font&gt;&lt;/div&gt;" style="text;html=1;align=center;verticalAlign=middle;resizable=0;points=[];autosize=1;strokeColor=none;fillColor=none;fontSize=16;" vertex="1" parent="1">
          <mxGeometry x="-170" y="1920" width="410" height="100" as="geometry" />
        </mxCell>
        <mxCell id="R6CpfAwiNoLqgVxxKqgZ-32" value="" style="image;html=1;image=img/lib/clip_art/networking/Firewall_02_128x128.png" vertex="1" parent="1">
          <mxGeometry x="-115.00000000000003" y="1240" width="195" height="190" as="geometry" />
        </mxCell>
        <mxCell id="R6CpfAwiNoLqgVxxKqgZ-35" value="" style="rounded=0;whiteSpace=wrap;html=1;opacity=0;strokeColor=#1F80FF;strokeWidth=12;" vertex="1" parent="1">
          <mxGeometry x="-510" y="1550" width="1010" height="590" as="geometry" />
        </mxCell>
        <mxCell id="R6CpfAwiNoLqgVxxKqgZ-36" value="" style="shape=flexArrow;endArrow=classic;startArrow=classic;html=1;rounded=0;strokeWidth=8;" edge="1" parent="1">
          <mxGeometry width="100" height="100" relative="1" as="geometry">
            <mxPoint x="-6.25" y="1610" as="sourcePoint" />
            <mxPoint x="-6.25" y="1480" as="targetPoint" />
          </mxGeometry>
        </mxCell>
        <mxCell id="R6CpfAwiNoLqgVxxKqgZ-38" value="&lt;font style=&quot;font-size: 25px;&quot;&gt;PALO ALTO FIREWALL GATEWAY&lt;/font&gt;" style="text;html=1;align=center;verticalAlign=middle;whiteSpace=wrap;rounded=0;strokeWidth=14;fillColor=default;strokeColor=default;" vertex="1" parent="1">
          <mxGeometry x="160" y="1290" width="310" height="80" as="geometry" />
        </mxCell>
        <mxCell id="R6CpfAwiNoLqgVxxKqgZ-40" value="" style="sketch=0;aspect=fixed;pointerEvents=1;shadow=0;dashed=0;html=1;strokeColor=none;labelPosition=center;verticalLabelPosition=bottom;verticalAlign=top;align=center;fillColor=#00188D;shape=mxgraph.mscae.enterprise.router" vertex="1" parent="1">
          <mxGeometry x="-152.31" y="270" width="192.31" height="150" as="geometry" />
        </mxCell>
        <mxCell id="R6CpfAwiNoLqgVxxKqgZ-41" value="" style="html=1;strokeWidth=1;shadow=0;dashed=0;shape=mxgraph.ios7.misc.vpn;fillColor=#007AFF;strokeColor=none;buttonText=;strokeColor2=#222222;fontColor=#222222;fontSize=8;verticalLabelPosition=bottom;verticalAlign=top;align=center;sketch=0;" vertex="1" parent="1">
          <mxGeometry x="280" y="50" width="130" height="140" as="geometry" />
        </mxCell>
        <mxCell id="R6CpfAwiNoLqgVxxKqgZ-43" value="&lt;font style=&quot;font-size: 26px;&quot;&gt;Global Protect VPN&lt;/font&gt;" style="text;html=1;align=center;verticalAlign=middle;resizable=0;points=[];autosize=1;strokeColor=none;fillColor=none;" vertex="1" parent="1">
          <mxGeometry x="450" y="100" width="230" height="40" as="geometry" />
        </mxCell>
        <mxCell id="R6CpfAwiNoLqgVxxKqgZ-46" value="" style="shape=flexArrow;endArrow=classic;startArrow=classic;html=1;rounded=0;startWidth=95;startSize=16.825;endWidth=95;endSize=16.825;" edge="1" parent="1">
          <mxGeometry width="100" height="100" relative="1" as="geometry">
            <mxPoint x="-50" y="800" as="sourcePoint" />
            <mxPoint x="-50" y="470" as="targetPoint" />
          </mxGeometry>
        </mxCell>
        <mxCell id="R6CpfAwiNoLqgVxxKqgZ-49" value="" style="endArrow=classic;html=1;rounded=0;strokeWidth=11;" edge="1" parent="1">
          <mxGeometry width="50" height="50" relative="1" as="geometry">
            <mxPoint x="80" y="310" as="sourcePoint" />
            <mxPoint x="220" y="170" as="targetPoint" />
          </mxGeometry>
        </mxCell>
        <mxCell id="R6CpfAwiNoLqgVxxKqgZ-51" value="" style="endArrow=classic;html=1;rounded=0;strokeWidth=11;" edge="1" parent="1">
          <mxGeometry width="50" height="50" relative="1" as="geometry">
            <mxPoint x="95" y="400" as="sourcePoint" />
            <mxPoint x="245" y="475" as="targetPoint" />
          </mxGeometry>
        </mxCell>
        <mxCell id="R6CpfAwiNoLqgVxxKqgZ-52" value="&lt;font style=&quot;font-size: 22px;&quot;&gt;PALO ALTO FIREWALL IP ADDRESS&lt;br&gt;&lt;br&gt;&lt;/font&gt;&lt;div style=&quot;font-size: 22px;&quot;&gt;&lt;font style=&quot;font-size: 22px;&quot;&gt;10.129.4.1&lt;/font&gt;&lt;/div&gt;&lt;div style=&quot;font-size: 22px;&quot;&gt;&lt;font style=&quot;font-size: 22px;&quot;&gt;&lt;br&gt;&lt;/font&gt;&lt;/div&gt;" style="text;html=1;align=center;verticalAlign=middle;resizable=0;points=[];autosize=1;strokeColor=none;fillColor=none;" vertex="1" parent="1">
          <mxGeometry x="-517.5" y="1290" width="390" height="120" as="geometry" />
        </mxCell>
        <mxCell id="R6CpfAwiNoLqgVxxKqgZ-53" value="&lt;div&gt;&lt;font style=&quot;font-size: 25px;&quot;&gt;VLAN ROUTER&lt;/font&gt;&lt;/div&gt;" style="text;html=1;align=center;verticalAlign=middle;resizable=0;points=[];autosize=1;strokeColor=none;fillColor=none;" vertex="1" parent="1">
          <mxGeometry x="-390" y="320" width="200" height="40" as="geometry" />
        </mxCell>
      </root>
    </mxGraphModel>
  </diagram>
</mxfile>
